<svg width="129" height="29" viewBox="0 0 129 29" fill="none" xmlns="http://www.w3.org/2000/svg">
<path fill-rule="evenodd" clip-rule="evenodd" d="M0.685714 0.674419C0.166286 1.18529 0 1.79834 0 3.20349V5.05814H12H24V3.20349C24 1.79834 23.8337 1.18529 23.3143 0.674419C22.6581 0.029 22.1715 0 12 0C1.82846 0 1.34194 0.029 0.685714 0.674419ZM4.60046 1.89073C5.3112 2.15915 5.30023 3.57779 4.58503 3.84756C4.27851 3.96356 3.81566 3.88533 3.55646 3.6739C2.96846 3.19371 2.94309 2.13622 3.51429 1.90928C3.75017 1.81587 3.96891 1.72719 4.00046 1.71269C4.03234 1.69819 4.30217 1.7781 4.60046 1.89073ZM15.6 2.86628V3.87791H12.0048C8.80903 3.87791 8.39623 3.81013 8.28994 3.26823C8.00297 1.80306 8.36949 1.65705 12.0795 1.75855L15.6 1.85465V2.86628ZM20.3719 1.89073C21.0391 2.14263 21.0799 3.15459 20.4435 3.6739C19.7709 4.22287 18.8571 3.76933 18.8571 2.88651C18.8571 1.75079 19.2744 1.47664 20.3719 1.89073ZM8.9592 2.47579C8.33589 3.21462 8.8704 3.37209 12 3.37209C15.1296 3.37209 15.6641 3.21462 15.0408 2.47579C14.5111 1.84824 9.48891 1.84824 8.9592 2.47579ZM3.77143 2.86628C3.77143 3.14448 3.92571 3.37209 4.11429 3.37209C4.30286 3.37209 4.45714 3.14448 4.45714 2.86628C4.45714 2.58808 4.30286 2.36047 4.11429 2.36047C3.92571 2.36047 3.77143 2.58808 3.77143 2.86628ZM19.5429 2.86628C19.5429 3.14448 19.6971 3.37209 19.8857 3.37209C20.0743 3.37209 20.2286 3.14448 20.2286 2.86628C20.2286 2.58808 20.0743 2.36047 19.8857 2.36047C19.6971 2.36047 19.5429 2.58808 19.5429 2.86628ZM0 16.6919C0 27.2017 0.0281143 27.6788 0.685714 28.3256C1.34194 28.971 1.82846 29 12 29C22.1715 29 22.6581 28.971 23.3143 28.3256C23.9719 27.6788 24 27.2017 24 16.6919V5.73256H12H0V16.6919ZM15.2585 8.65144C17.1778 9.29484 19.4935 11.3946 20.22 13.1512C20.4888 13.8003 20.9863 14.5297 21.3257 14.7721C22.2271 15.4155 22.176 18.3101 21.2421 19.5049C20.8567 19.9979 20.0469 21.1555 19.4421 22.0774C17.9242 24.392 15.7574 25.6525 12.9103 25.8774C7.24629 26.3246 2.88651 22.3738 2.9328 16.8355C2.98457 10.639 9.09086 6.58469 15.2585 8.65144ZM8.71611 9.2456C7.14789 9.91733 5.20011 11.7254 4.36149 13.2877C3.32571 15.2179 3.32571 18.8402 4.36149 20.7704C5.22171 22.3732 7.17669 24.1631 8.79257 24.827C10.2439 25.4236 13.7561 25.4236 15.2074 24.827C17.2838 23.9736 19.8857 21.2405 19.8857 19.9122C19.8857 19.1818 18.8558 19.5946 18.3693 20.5199C17.2752 22.6004 14.46 24.2717 12.0398 24.277C9.54651 24.2828 6.65966 22.4956 5.47577 20.2133C4.57954 18.4855 4.57474 15.5814 5.46549 13.8644C6.71314 11.4594 9.39703 9.78278 12 9.78278C14.4535 9.78278 17.2666 11.4415 18.3693 13.5383C18.6686 14.1082 19.1534 14.5 19.5586 14.5C20.2399 14.5 20.2399 14.4949 19.5699 13.2034C18.7834 11.687 16.8093 9.88934 15.2074 9.2311C13.7805 8.6447 10.1002 8.65313 8.71611 9.2456ZM18.6521 15.6448C18.5513 15.9035 18.5174 16.7 18.577 17.4152C18.6806 18.6517 18.7485 18.7202 19.9714 18.8197L21.2571 18.9245V17.0493V15.1744H20.0465C19.3269 15.1744 18.7611 15.3653 18.6521 15.6448ZM11.6571 17.5598C9.54583 18.2049 8.15417 18.2363 6.25714 17.6816C4.39817 17.1383 6.04183 20.934 8.34549 22.504C9.50503 23.2944 10.0605 23.436 12 23.436C13.932 23.436 14.4967 23.2934 15.6363 22.5165C17.2461 21.4195 18.1714 19.9948 18.1714 18.615C18.1714 17.4776 17.8653 17.2968 15.5184 17.0507C14.4178 16.935 13.1595 17.1012 11.6571 17.5598Z" fill="white"/>
<path fill-rule="evenodd" clip-rule="evenodd" d="M0.685714 0.674419C0.166286 1.18529 0 1.79834 0 3.20349V5.05814H12H24V3.20349C24 1.79834 23.8337 1.18529 23.3143 0.674419C22.6581 0.029 22.1715 0 12 0C1.82846 0 1.34194 0.029 0.685714 0.674419ZM4.60046 1.89073C5.3112 2.15915 5.30023 3.57779 4.58503 3.84756C4.27851 3.96356 3.81566 3.88533 3.55646 3.6739C2.96846 3.19371 2.94309 2.13622 3.51429 1.90928C3.75017 1.81587 3.96891 1.72719 4.00046 1.71269C4.03234 1.69819 4.30217 1.7781 4.60046 1.89073ZM15.6 2.86628V3.87791H12.0048C8.80903 3.87791 8.39623 3.81013 8.28994 3.26823C8.00297 1.80306 8.36949 1.65705 12.0795 1.75855L15.6 1.85465V2.86628ZM20.3719 1.89073C21.0391 2.14263 21.0799 3.15459 20.4435 3.6739C19.7709 4.22287 18.8571 3.76933 18.8571 2.88651C18.8571 1.75079 19.2744 1.47664 20.3719 1.89073ZM8.9592 2.47579C8.33589 3.21462 8.8704 3.37209 12 3.37209C15.1296 3.37209 15.6641 3.21462 15.0408 2.47579C14.5111 1.84824 9.48891 1.84824 8.9592 2.47579ZM3.77143 2.86628C3.77143 3.14448 3.92571 3.37209 4.11429 3.37209C4.30286 3.37209 4.45714 3.14448 4.45714 2.86628C4.45714 2.58808 4.30286 2.36047 4.11429 2.36047C3.92571 2.36047 3.77143 2.58808 3.77143 2.86628ZM19.5429 2.86628C19.5429 3.14448 19.6971 3.37209 19.8857 3.37209C20.0743 3.37209 20.2286 3.14448 20.2286 2.86628C20.2286 2.58808 20.0743 2.36047 19.8857 2.36047C19.6971 2.36047 19.5429 2.58808 19.5429 2.86628ZM0 16.6919C0 27.2017 0.0281143 27.6788 0.685714 28.3256C1.34194 28.971 1.82846 29 12 29C22.1715 29 22.6581 28.971 23.3143 28.3256C23.9719 27.6788 24 27.2017 24 16.6919V5.73256H12H0V16.6919ZM15.2585 8.65144C17.1778 9.29484 19.4935 11.3946 20.22 13.1512C20.4888 13.8003 20.9863 14.5297 21.3257 14.7721C22.2271 15.4155 22.176 18.3101 21.2421 19.5049C20.8567 19.9979 20.0469 21.1555 19.4421 22.0774C17.9242 24.392 15.7574 25.6525 12.9103 25.8774C7.24629 26.3246 2.88651 22.3738 2.9328 16.8355C2.98457 10.639 9.09086 6.58469 15.2585 8.65144ZM8.71611 9.2456C7.14789 9.91733 5.20011 11.7254 4.36149 13.2877C3.32571 15.2179 3.32571 18.8402 4.36149 20.7704C5.22171 22.3732 7.17669 24.1631 8.79257 24.827C10.2439 25.4236 13.7561 25.4236 15.2074 24.827C17.2838 23.9736 19.8857 21.2405 19.8857 19.9122C19.8857 19.1818 18.8558 19.5946 18.3693 20.5199C17.2752 22.6004 14.46 24.2717 12.0398 24.277C9.54651 24.2828 6.65966 22.4956 5.47577 20.2133C4.57954 18.4855 4.57474 15.5814 5.46549 13.8644C6.71314 11.4594 9.39703 9.78278 12 9.78278C14.4535 9.78278 17.2666 11.4415 18.3693 13.5383C18.6686 14.1082 19.1534 14.5 19.5586 14.5C20.2399 14.5 20.2399 14.4949 19.5699 13.2034C18.7834 11.687 16.8093 9.88934 15.2074 9.2311C13.7805 8.6447 10.1002 8.65313 8.71611 9.2456ZM18.6521 15.6448C18.5513 15.9035 18.5174 16.7 18.577 17.4152C18.6806 18.6517 18.7485 18.7202 19.9714 18.8197L21.2571 18.9245V17.0493V15.1744H20.0465C19.3269 15.1744 18.7611 15.3653 18.6521 15.6448ZM11.6571 17.5598C9.54583 18.2049 8.15417 18.2363 6.25714 17.6816C4.39817 17.1383 6.04183 20.934 8.34549 22.504C9.50503 23.2944 10.0605 23.436 12 23.436C13.932 23.436 14.4967 23.2934 15.6363 22.5165C17.2461 21.4195 18.1714 19.9948 18.1714 18.615C18.1714 17.4776 17.8653 17.2968 15.5184 17.0507C14.4178 16.935 13.1595 17.1012 11.6571 17.5598Z" fill="white"/>
<rect x="18" y="7.67249" width="3.97702" height="1.26388" fill="#0038C7"/>
<rect x="18" y="6.4086" width="3.97702" height="1.26388" fill="#FBFF29"/>
<path d="M34.616 9.952H36.408L39.864 16.896H39.736L43.192 9.952H44.936V20H43.672V11.248H43.896L40.216 18.736H39.384L35.72 11.296H35.864V20H34.616V9.952ZM48.1469 20V9.952H54.3389V11.024H49.3949V14.4H54.0509V15.472H49.3949V18.912H54.3389V20H48.1469ZM60.6353 20.192C59.7499 20.192 58.9873 19.9707 58.3473 19.528C57.7073 19.08 57.2139 18.4613 56.8673 17.672C56.5206 16.8773 56.3473 15.9573 56.3473 14.912C56.3473 13.7973 56.5339 12.8587 56.9073 12.096C57.2859 11.3333 57.7979 10.7573 58.4433 10.368C59.0939 9.97333 59.8246 9.776 60.6353 9.776C61.7073 9.776 62.5686 10.0453 63.2193 10.584C63.8753 11.1173 64.3259 11.8133 64.5712 12.672L63.2273 12.944C63.0193 12.32 62.6859 11.824 62.2273 11.456C61.7739 11.0827 61.2433 10.896 60.6353 10.896C60.1073 10.896 59.6193 11.048 59.1713 11.352C58.7286 11.6507 58.3713 12.0987 58.0993 12.696C57.8273 13.2933 57.6913 14.032 57.6913 14.912C57.6913 15.712 57.7979 16.424 58.0113 17.048C58.2299 17.672 58.5553 18.1627 58.9873 18.52C59.4246 18.8773 59.9739 19.056 60.6353 19.056C61.4299 19.056 62.0593 18.8427 62.5233 18.416C62.9926 17.9893 63.2273 17.4293 63.2273 16.736H64.5873C64.5873 17.456 64.4219 18.0747 64.0913 18.592C63.7606 19.104 63.2966 19.4987 62.6993 19.776C62.1073 20.0533 61.4193 20.192 60.6353 20.192ZM66.9598 9.952H68.2078V14.384H73.1838V9.952H74.4158V20H73.1838V15.456H68.2078V20H66.9598V9.952ZM76.4629 20L79.9189 9.952H81.4389L84.8149 20H83.5029L82.6549 17.424H78.6549L77.7749 20H76.4629ZM78.9749 16.448H82.3349L80.6549 11.472L78.9749 16.448ZM86.8344 9.952H88.3224L93.4264 18.224H93.3144V9.952H94.5624V20H93.1704L87.8904 11.456H88.0824V20H86.8344V9.952ZM97.7879 20V9.952H99.0359V20H97.7879ZM105.76 20.192C104.875 20.192 104.112 19.9707 103.472 19.528C102.832 19.08 102.339 18.4613 101.992 17.672C101.646 16.8773 101.472 15.9573 101.472 14.912C101.472 13.7973 101.659 12.8587 102.032 12.096C102.411 11.3333 102.923 10.7573 103.568 10.368C104.219 9.97333 104.95 9.776 105.76 9.776C106.832 9.776 107.694 10.0453 108.344 10.584C109 11.1173 109.451 11.8133 109.696 12.672L108.352 12.944C108.144 12.32 107.811 11.824 107.352 11.456C106.899 11.0827 106.368 10.896 105.76 10.896C105.232 10.896 104.744 11.048 104.296 11.352C103.854 11.6507 103.496 12.0987 103.224 12.696C102.952 13.2933 102.816 14.032 102.816 14.912C102.816 15.712 102.923 16.424 103.136 17.048C103.355 17.672 103.68 18.1627 104.112 18.52C104.55 18.8773 105.099 19.056 105.76 19.056C106.555 19.056 107.184 18.8427 107.648 18.416C108.118 17.9893 108.352 17.4293 108.352 16.736H109.712C109.712 17.456 109.547 18.0747 109.216 18.592C108.886 19.104 108.422 19.4987 107.824 19.776C107.232 20.0533 106.544 20.192 105.76 20.192ZM115.29 20V18.512C115.29 17.9307 115.383 17.4453 115.57 17.056C115.762 16.6667 116.028 16.344 116.37 16.088C116.716 15.832 117.124 15.6107 117.594 15.424L119.578 14.64C120.09 14.432 120.474 14.1653 120.73 13.84C120.986 13.5147 121.114 13.1093 121.114 12.624C121.114 12.112 120.935 11.6933 120.578 11.368C120.226 11.0427 119.732 10.88 119.098 10.88C118.468 10.88 117.951 11.016 117.546 11.288C117.146 11.5547 116.916 11.9573 116.858 12.496H115.466C115.503 11.9147 115.674 11.4213 115.978 11.016C116.287 10.6107 116.706 10.304 117.234 10.096C117.762 9.88267 118.378 9.776 119.082 9.776C119.727 9.776 120.306 9.90133 120.818 10.152C121.33 10.4027 121.732 10.7493 122.026 11.192C122.324 11.6293 122.474 12.1333 122.474 12.704C122.474 13.2213 122.378 13.672 122.186 14.056C121.994 14.44 121.719 14.7707 121.362 15.048C121.01 15.3253 120.591 15.5627 120.106 15.76L118.074 16.576C117.562 16.7733 117.178 17.0107 116.922 17.288C116.666 17.5653 116.538 17.9253 116.538 18.368V18.848H122.378V20H115.29ZM126.187 9.92H127.195V20H125.947V11.392C125.691 11.568 125.422 11.704 125.139 11.8C124.862 11.8907 124.582 11.9413 124.299 11.952V10.736C124.635 10.688 124.961 10.6 125.275 10.472C125.595 10.344 125.899 10.16 126.187 9.92Z" fill="white"/>
</svg>
