<svg width="24" height="24" viewBox="0 0 24 24" fill="none" xmlns="http://www.w3.org/2000/svg">
<path fill-rule="evenodd" clip-rule="evenodd" d="M12.9918 0.0820667C12.5307 0.313213 12.4895 0.965245 12.9183 1.24558C12.9843 1.28873 13.3079 1.38379 13.6374 1.45685C14.6456 1.68035 15.1431 1.84477 16.0462 2.25289C17.3397 2.83749 18.4836 3.65009 19.5513 4.74303C21.0926 6.32068 22.1034 8.21731 22.5748 10.4164C22.7021 11.01 22.7336 11.0837 22.9177 11.2204C23.2121 11.4389 23.5784 11.4182 23.8173 11.1695C24.0323 10.9456 24.0467 10.7996 23.9171 10.1644C22.9743 5.54649 19.4729 1.72884 14.9409 0.377507C14.4247 0.223597 13.4298 -0.000140619 13.262 6.63147e-08C13.2034 6.63147e-08 13.0818 0.0369535 12.9918 0.0820667ZM3.91294 1.49624C3.31072 1.68846 2.81054 2.10644 1.40092 3.59541C0.391174 4.66209 0.114365 5.19942 0.0205443 6.27524C-0.112807 7.80449 0.40396 9.74066 1.54354 11.9816C2.02575 12.93 2.24174 13.2976 2.85223 14.2092C5.15644 17.6498 8.17657 20.3932 11.7453 22.2873C13.7678 23.3608 15.4766 23.9121 17.0333 23.9932C18.1339 24.0506 19.1114 23.7435 19.8457 23.1098C19.9318 23.0355 20.4719 22.494 21.0458 21.9065C21.9961 20.9338 22.1071 20.803 22.288 20.443C22.6431 19.736 22.6441 19.1055 22.2912 18.3828C22.1014 17.9942 22.0529 17.9407 20.3522 16.243C18.7015 14.5952 18.5889 14.4927 18.2528 14.3331C17.533 13.9913 16.793 14.0244 16.0948 14.4296C15.9776 14.4976 15.4443 14.9846 14.9096 15.5119L13.9375 16.4705L13.4694 16.2232C11.4031 15.1315 8.68671 12.403 7.67715 10.4052L7.4966 10.048L8.40022 9.13899C9.36353 8.16995 9.59507 7.87789 9.75061 7.43585C9.96053 6.83925 9.91823 6.26521 9.61984 5.6619C9.46595 5.35075 9.30693 5.17784 7.70784 3.58294C5.88774 1.76753 5.74118 1.64527 5.18793 1.48137C4.85124 1.38163 4.25019 1.38862 3.91294 1.49624ZM4.96649 2.8607C5.26088 2.99872 8.29808 6.04348 8.428 6.33076C8.67228 6.871 8.56953 7.04915 7.27841 8.32381C6.70369 8.89125 6.19665 9.42791 6.15171 9.51645C6.01972 9.77639 6.07575 10.2515 6.29263 10.7119C6.89697 11.9946 7.87607 13.2878 9.36818 14.774C10.5927 15.9936 11.8518 16.9381 13.125 17.5921C13.6574 17.8657 13.7297 17.8903 13.9946 17.8881C14.1799 17.8866 14.3425 17.8548 14.448 17.7996C14.5385 17.7522 15.0885 17.2442 15.6702 16.6708C16.2518 16.0973 16.7999 15.5915 16.888 15.5466C17.1231 15.4272 17.5344 15.466 17.7715 15.6299C18.104 15.8598 20.9621 18.7662 21.0752 18.9895C21.2129 19.2615 21.2127 19.5684 21.0745 19.8396C20.973 20.0388 19.4585 21.6234 18.9373 22.0758C18.1838 22.7296 17.1251 22.8085 15.3881 22.3404C14.1193 21.9984 12.1606 21.0511 10.5467 19.9989C7.11403 17.761 3.9747 14.135 2.3875 10.5748C1.36708 8.28602 1.11551 6.53105 1.65146 5.43975C1.74805 5.24308 2.03506 4.92198 2.86032 4.08725C3.54517 3.39456 4.0202 2.95196 4.15407 2.88185C4.41711 2.74412 4.70209 2.73671 4.96649 2.8607ZM12.7672 4.45472C12.4458 4.65023 12.3321 5.07308 12.5188 5.3786C12.6508 5.59451 12.7658 5.65271 13.3339 5.79105C14.6376 6.10843 15.6832 6.70457 16.5739 7.63834C17.4122 8.51726 17.9818 9.57404 18.2325 10.7155C18.3296 11.1577 18.3979 11.306 18.5647 11.437C18.9455 11.7358 19.5564 11.5155 19.6444 11.0478C19.7112 10.6922 19.3581 9.4697 18.9534 8.65578C17.9047 6.54672 16.0032 5.02787 13.7195 4.47507C13.1493 4.33706 12.967 4.33317 12.7672 4.45472Z" fill="#04C1FF"/>
</svg>
