<svg width="94" height="12" viewBox="0 0 94 12" fill="none" xmlns="http://www.w3.org/2000/svg">
<path d="M0.616 0.952H2.408L5.864 7.896H5.736L9.192 0.952H10.936V11H9.672V2.248H9.896L6.216 9.736H5.384L1.72 2.296H1.864V11H0.616V0.952ZM14.1469 11V0.952H20.3389V2.024H15.3949V5.4H20.0509V6.472H15.3949V9.912H20.3389V11H14.1469ZM26.6353 11.192C25.7499 11.192 24.9873 10.9707 24.3473 10.528C23.7073 10.08 23.2139 9.46133 22.8673 8.672C22.5206 7.87733 22.3473 6.95733 22.3473 5.912C22.3473 4.79733 22.5339 3.85867 22.9073 3.096C23.2859 2.33333 23.7979 1.75733 24.4433 1.368C25.0939 0.973332 25.8246 0.775999 26.6353 0.775999C27.7073 0.775999 28.5686 1.04533 29.2193 1.584C29.8753 2.11733 30.3259 2.81333 30.5712 3.672L29.2273 3.944C29.0193 3.32 28.6859 2.824 28.2273 2.456C27.7739 2.08267 27.2433 1.896 26.6353 1.896C26.1073 1.896 25.6193 2.048 25.1713 2.352C24.7286 2.65067 24.3713 3.09867 24.0993 3.696C23.8273 4.29333 23.6913 5.032 23.6913 5.912C23.6913 6.712 23.7979 7.424 24.0113 8.048C24.2299 8.672 24.5553 9.16267 24.9873 9.52C25.4246 9.87733 25.9739 10.056 26.6353 10.056C27.4299 10.056 28.0593 9.84267 28.5233 9.416C28.9926 8.98933 29.2273 8.42933 29.2273 7.736H30.5873C30.5873 8.456 30.4219 9.07467 30.0913 9.592C29.7606 10.104 29.2966 10.4987 28.6993 10.776C28.1073 11.0533 27.4193 11.192 26.6353 11.192ZM32.9598 0.952H34.2078V5.384H39.1838V0.952H40.4158V11H39.1838V6.456H34.2078V11H32.9598V0.952ZM42.4629 11L45.9189 0.952H47.4389L50.8149 11H49.5029L48.6549 8.424H44.6549L43.7749 11H42.4629ZM44.9749 7.448H48.3349L46.6549 2.472L44.9749 7.448ZM52.8344 0.952H54.3224L59.4264 9.224H59.3144V0.952H60.5624V11H59.1704L53.8904 2.456H54.0824V11H52.8344V0.952ZM63.7879 11V0.952H65.0359V11H63.7879ZM71.7603 11.192C70.8749 11.192 70.1123 10.9707 69.4723 10.528C68.8323 10.08 68.3389 9.46133 67.9923 8.672C67.6456 7.87733 67.4723 6.95733 67.4723 5.912C67.4723 4.79733 67.6589 3.85867 68.0323 3.096C68.4109 2.33333 68.9229 1.75733 69.5683 1.368C70.2189 0.973332 70.9496 0.775999 71.7603 0.775999C72.8323 0.775999 73.6936 1.04533 74.3443 1.584C75.0003 2.11733 75.4509 2.81333 75.6962 3.672L74.3523 3.944C74.1443 3.32 73.8109 2.824 73.3523 2.456C72.8989 2.08267 72.3683 1.896 71.7603 1.896C71.2323 1.896 70.7443 2.048 70.2963 2.352C69.8536 2.65067 69.4963 3.09867 69.2243 3.696C68.9523 4.29333 68.8163 5.032 68.8163 5.912C68.8163 6.712 68.9229 7.424 69.1363 8.048C69.3549 8.672 69.6803 9.16267 70.1123 9.52C70.5496 9.87733 71.0989 10.056 71.7603 10.056C72.5549 10.056 73.1843 9.84267 73.6483 9.416C74.1176 8.98933 74.3523 8.42933 74.3523 7.736H75.7123C75.7123 8.456 75.5469 9.07467 75.2163 9.592C74.8856 10.104 74.4216 10.4987 73.8243 10.776C73.2323 11.0533 72.5443 11.192 71.7603 11.192ZM81.2896 11V9.512C81.2896 8.93067 81.383 8.44533 81.5696 8.056C81.7616 7.66667 82.0283 7.344 82.3696 7.088C82.7163 6.832 83.1243 6.61067 83.5936 6.424L85.5776 5.64C86.0896 5.432 86.4736 5.16533 86.7296 4.84C86.9856 4.51467 87.1136 4.10933 87.1136 3.624C87.1136 3.112 86.935 2.69333 86.5776 2.368C86.2256 2.04267 85.7323 1.88 85.0976 1.88C84.4683 1.88 83.951 2.016 83.5456 2.288C83.1456 2.55467 82.9163 2.95733 82.8576 3.496H81.4656C81.503 2.91467 81.6736 2.42133 81.9776 2.016C82.287 1.61067 82.7056 1.304 83.2336 1.096C83.7616 0.882666 84.3776 0.775999 85.0816 0.775999C85.727 0.775999 86.3056 0.901333 86.8176 1.152C87.3296 1.40267 87.7323 1.74933 88.0256 2.192C88.3243 2.62933 88.4736 3.13333 88.4736 3.704C88.4736 4.22133 88.3776 4.672 88.1856 5.056C87.9936 5.44 87.719 5.77067 87.3616 6.048C87.0096 6.32533 86.591 6.56267 86.1056 6.76L84.0736 7.576C83.5616 7.77333 83.1776 8.01067 82.9216 8.288C82.6656 8.56533 82.5376 8.92533 82.5376 9.368V9.848H88.3776V11H81.2896ZM92.1873 0.919999H93.1953V11H91.9473V2.392C91.6913 2.568 91.4219 2.704 91.1393 2.8C90.8619 2.89067 90.5819 2.94133 90.2993 2.952V1.736C90.6353 1.688 90.9606 1.6 91.2753 1.472C91.5953 1.344 91.8993 1.16 92.1873 0.919999Z" fill="white"/>
</svg>
