<svg width="22" height="22" viewBox="0 0 22 22" fill="none" xmlns="http://www.w3.org/2000/svg">
<path fill-rule="evenodd" clip-rule="evenodd" d="M10.0173 0.0260172C7.89215 0.234032 5.92801 1.01675 4.20589 2.34188C3.36725 2.98717 2.27816 4.1999 1.64879 5.18917C1.37698 5.61643 0.847869 6.69908 0.658325 7.21576C-0.217932 9.60479 -0.219525 12.3928 0.654063 14.7633C0.814463 15.1985 1.29872 16.2214 1.528 16.6093L1.65508 16.8244L1.03634 19.0582C0.696036 20.2869 0.417596 21.3455 0.417596 21.4109C0.417596 21.5765 0.579847 21.7478 0.761986 21.7744C0.876582 21.7912 1.43165 21.6364 3.08119 21.1277C4.2739 20.76 5.27393 20.4591 5.30341 20.4591C5.3329 20.4591 5.61625 20.5934 5.93305 20.7576C8.67762 22.1804 11.9102 22.3918 14.7909 21.3369C15.308 21.1475 16.3916 20.6188 16.8192 20.3472C18.2016 19.4692 19.4876 18.1842 20.3664 16.8029C20.6382 16.3756 21.1673 15.293 21.3569 14.7763C21.5688 14.1985 21.7947 13.3156 21.9058 12.6305C21.9843 12.1464 22 11.8746 22 10.996C22 9.80025 21.9312 9.23543 21.66 8.20508C21.4564 7.43139 21.2663 6.92684 20.8884 6.15698C20.3194 4.99798 19.7277 4.17641 18.7803 3.22968C17.8328 2.28299 17.0105 1.69181 15.8506 1.12325C14.7899 0.603348 13.8118 0.293176 12.665 0.112905C12.0322 0.0134572 10.6192 -0.0329116 10.0173 0.0260172ZM12.665 0.968706C14.8675 1.35002 16.7449 2.34153 18.3047 3.94728C19.7916 5.47788 20.7153 7.32394 21.0677 9.46904C21.1779 10.1404 21.1779 11.8517 21.0677 12.523C20.7153 14.6681 19.7916 16.5142 18.3047 18.0448C16.7445 19.6509 14.8591 20.6464 12.665 21.0224C11.9972 21.1369 10.6826 21.1788 10.0095 21.1071C8.50211 20.9465 7.17492 20.5129 5.83752 19.7439C5.65762 19.6404 5.46424 19.5558 5.40781 19.5558C5.35137 19.5558 4.44679 19.8195 3.39765 20.1418C2.3485 20.4641 1.48288 20.7205 1.47406 20.7117C1.46519 20.7029 1.69942 19.8343 1.99456 18.7815C2.36538 17.4585 2.52552 16.8209 2.51304 16.7167C2.50309 16.6338 2.40559 16.4189 2.29633 16.2391C1.58293 15.065 1.08571 13.6023 0.908826 12.1574C0.814936 11.3904 0.844554 10.0842 0.97271 9.34C1.33174 7.25551 2.24575 5.45504 3.71044 3.94728C5.44065 2.16617 7.4729 1.18175 10.0605 0.871323C10.1434 0.861387 10.6471 0.859107 11.1798 0.866291C11.9193 0.876227 12.2706 0.900444 12.665 0.968706ZM6.3368 4.15852C5.8132 4.21439 5.70062 4.2602 5.47768 4.50796C4.49806 5.59668 3.89667 7.14703 3.96206 8.4152C4.00102 9.17014 4.1488 9.69865 4.57658 10.6127C5.70691 13.028 7.54656 15.1204 9.63003 16.3604C10.8734 17.1004 12.0741 17.4936 13.4851 17.6227C16.1003 17.8621 17.728 16.8192 18.3086 14.5321C18.4202 14.0928 18.4368 13.8757 18.3688 13.7486C18.345 13.7043 18.0593 13.5084 17.7338 13.3132C17.4083 13.1181 16.7958 12.7375 16.3725 12.4674C15.9492 12.1973 15.5037 11.9302 15.3824 11.8737C15.1153 11.7495 14.7321 11.7353 14.5084 11.8413C14.3517 11.9156 14.3162 11.9554 13.8866 12.5377C13.6048 12.9196 12.943 13.6378 12.8047 13.7117C12.7027 13.7663 12.5792 13.7207 12.1053 13.454C11.0782 12.8758 9.6683 11.7585 8.97646 10.9745C8.45704 10.3859 8.08027 9.76936 8.08027 9.5081C8.08027 9.47214 8.22565 9.27457 8.40331 9.06905C8.97349 8.40948 9.17918 7.86811 9.04913 7.36928C8.89239 6.76808 7.86481 4.77671 7.50514 4.37712C7.31491 4.16583 6.93479 4.09469 6.3368 4.15852ZM7.13131 5.32768C7.25107 5.5221 7.54604 6.07379 7.78685 6.55365C8.30723 7.59063 8.32466 7.68195 8.08027 8.088C7.99741 8.22564 7.77226 8.50936 7.57992 8.71849C7.20182 9.12953 7.16381 9.21797 7.22025 9.55481C7.42107 10.753 8.87508 12.3816 10.9585 13.7418C11.9301 14.3762 12.5479 14.6441 12.8682 14.5699C13.2887 14.4725 13.9167 13.9166 14.5208 13.107L14.9027 12.5951L15.0438 12.6539C15.1213 12.6863 15.5283 12.9328 15.9481 13.2017C16.368 13.4707 16.8859 13.7941 17.099 13.9204C17.3121 14.0467 17.4953 14.1575 17.5062 14.1664C17.587 14.2331 17.1582 15.3599 16.9486 15.6318C16.6725 15.99 16.3608 16.2493 15.9839 16.4346C15.4731 16.6855 15.1228 16.7635 14.38 16.7915C12.2046 16.8736 10.1426 16.0279 8.26538 14.2837C6.98223 13.0914 5.6782 11.1945 5.08288 9.65434C4.65308 8.54231 4.72768 7.46503 5.31693 6.27518C5.49507 5.91555 5.95233 5.21498 6.08961 5.09136C6.16856 5.02026 6.3204 4.99234 6.68976 4.98099L6.91352 4.9741L7.13131 5.32768Z" fill="white"/>
</svg>
